<?xml version="1.0" encoding="UTF-8" standalone="no"?>
<!-- Created with Inkscape (http://www.inkscape.org/) -->

<svg
   xmlns:dc="http://purl.org/dc/elements/1.1/"
   xmlns:cc="http://creativecommons.org/ns#"
   xmlns:rdf="http://www.w3.org/1999/02/22-rdf-syntax-ns#"
   xmlns:svg="http://www.w3.org/2000/svg"
   xmlns="http://www.w3.org/2000/svg"
   xmlns:sodipodi="http://sodipodi.sourceforge.net/DTD/sodipodi-0.dtd"
   xmlns:inkscape="http://www.inkscape.org/namespaces/inkscape"
   width="210mm"
   height="100mm"
   viewBox="0 0 744.09449 354.33071"
   id="svg5550"
   version="1.1"
   inkscape:version="0.91 r13725"
   sodipodi:docname="syngerlogo2.svg">
  <defs
     id="defs5552">
    <filter
       style="color-interpolation-filters:sRGB"
       inkscape:label="Blur"
       id="filter15828">
      <feGaussianBlur
         stdDeviation="34.9 34.3816"
         result="blur"
         id="feGaussianBlur15830" />
    </filter>
  </defs>
  <sodipodi:namedview
     id="base"
     pagecolor="#ffffff"
     bordercolor="#666666"
     borderopacity="1.0"
     inkscape:pageopacity="0.0"
     inkscape:pageshadow="2"
     inkscape:zoom="0.48"
     inkscape:cx="447.19159"
     inkscape:cy="278.24881"
     inkscape:document-units="px"
     inkscape:current-layer="g15842"
     showgrid="false"
     inkscape:window-width="1366"
     inkscape:window-height="705"
     inkscape:window-x="-8"
     inkscape:window-y="-8"
     inkscape:window-maximized="1"
     inkscape:snap-nodes="false"
     inkscape:snap-others="false"
     inkscape:snap-global="false" />
  <metadata
     id="metadata5555">
    <rdf:RDF>
      <cc:Work
         rdf:about="">
        <dc:format>image/svg+xml</dc:format>
        <dc:type
           rdf:resource="http://purl.org/dc/dcmitype/StillImage" />
        <dc:title></dc:title>
      </cc:Work>
    </rdf:RDF>
  </metadata>
  <g
     inkscape:label="Layer 1"
     inkscape:groupmode="layer"
     id="layer1"
     transform="translate(0,-698.0315)">
    <g
       id="g15842"
       transform="matrix(2.0709956,0,0,2.0709956,-607.15331,-471.83408)">
      <g
         transform="matrix(0.09720004,0,0,0.09720004,429.92709,282.00906)"
         id="g6135">
        <path
           style="fill:#000000"
           d="m 634.68682,4482.6574 c -77.95139,-80.2582 -13.83087,-248.8966 3.37807,-187.0411 -49.04582,140.7907 171.68768,178.2264 305.90371,-40.1775 104.2803,-189.2341 71.2157,-142.8848 127.0456,-281.1495 -123.23714,13.6697 -276.6475,-14.6966 -211.92749,-186.8184 28.06113,-152.1368 193.31269,-288.9781 350.07259,-234.5875 25.982,71.6248 177.9904,-76.2967 114.4557,50.0704 -158.7403,239.2231 -197.3474,543.7514 -384.82016,765.6657 -75.30819,80.8842 -226.63669,178.1198 -304.10802,114.0379 z m 340.625,-595.6592 c 160.85048,53.7885 314.57478,-311.3454 87.17828,-253.2133 -90.37007,9.0859 -238.18799,250.1027 -87.17828,253.2133 z m -1398.75,549.5019 c -152.94205,-13.0488 9.62767,-297.9453 11.77821,-229.6367 -76.79127,172.7013 27.41981,234.7678 234.43052,69.1643 116.435024,-102.2963 177.49947544,-249.4822 230.579142,-391.4039 -101.553356,70.7544 -379.611612,94.611 -290.258732,-100.0255 21.84545,-76.3578 157.300822,-236.8988 204.795361,-165.6186 -56.412049,66.9579 -243.124931,236.1737 -80.941601,271.9474 170.757553,-15.1136 262.49846,-179.75 372.84787,-286.9127 62.47142,-76.278 159.10083,-32.1358 68.65322,44.2181 C 180.85263,3796.4844 88.401834,3986.5217 -4.3838182,4170.7467 -95.492903,4312.614 -240.45194,4455.6854 -423.43818,4436.5001 Z m -528.125,-158.2883 c -158.28262,10.1386 -369.09692,-91.7196 -333.55502,-279.2151 6.1652,-138.8643 82.6371,-293.0858 229.807,-320.7032 64.64393,-14.4221 154.84418,108.8149 37.6669,73.8873 -143.1187,-0.326 -197.4172,177.4906 -167.9855,294.9143 36.761,136.7256 281.51146,149.5162 391.98665,102.3366 159.21217,-58.4948 248.10785,-134.6656 256.57539,-263.9202 3.99953,-156.7219 -212.21151,-110.0797 -238.53953,-348.0811 3.47788,-205.9431 254.14122,-351.2418 471.01305,-416.0428 160.45909,-83.3345 365.880831,89.9936 275.588921,257.8802 -35.824501,91.9845 -184.046301,192.8116 -265.625291,117.8725 164.39056,-1.461 283.128115,-326.7023 58.8085,-310.2693 -173.19326,30.2057 -338.15335,87.3164 -419.28863,270.966 -41.45255,142.7213 21.92902,192.2963 141.60597,264.7611 130.67055,78.5177 96.53762,241.5234 -0.45317,380.1356 -113.07666,117.8223 -271.02615,161.5148 -437.60524,175.4781 z M 1571.9633,4008.7996 c -31.8582,-79.5977 246.4154,-255.2454 273.5168,-435.4664 30.935,-114.777 52.8583,19.3403 132.3153,-17.8511 99.1945,-27.2842 232.2994,89.7951 82.1653,108.5865 -149.5733,-96.1017 -219.6886,108.9499 -294.5574,199.039 -47.8499,66.2021 -133.5627,183.4622 -193.44,145.692 z m -933.6606,-42.7624 c -159.18804,-111.5251 181.199,-297.079 44.05283,-365.6998 -155.52067,35.4474 -243.0253,176.2048 -342.14677,286.6416 -38.1299,54.091 -145.32556,62.8724 -68.00001,-16.5523 103.00352,-101.1734 171.60806,-204.5521 217.65058,-358.2649 91.6735,-60.1593 9.41004,106.3272 144.80434,40.0049 144.74421,-100.4179 212.92077,79.1047 104.77716,192.2538 -56.10447,85.5741 -125.76137,201.6281 1.73531,138.0102 127.78909,-53.6437 -41.06211,109.7988 -102.87344,83.6065 z m 755.1341,-5.3517 c -190.6342,-40.4466 -62.4609,-269.3339 41.2172,-368.0982 111.7806,-102.9941 321.5111,-98.4561 264.779,77.8022 -35.6141,142.725 -196.6772,76.7964 -282.0673,112.5504 -26.4831,11.0888 -45.6873,31.9583 -51.6129,71.8663 23.4499,128.2102 282.5856,-95.039 183.0484,38.0514 -25.9623,18.8975 -121.7459,86.0182 -155.3644,67.8279 z m 132.1821,-238.548 c 172.4341,-36.4057 124.779,-196.2435 1.9759,-118.2007 -65.8888,54.7397 -153.1698,149.2312 -1.9759,118.2007 z"
           id="path6118"
           inkscape:connector-curvature="0"
           sodipodi:nodetypes="cccccccccccccccccccccccccccccccccccccccccccccccccccccccccscccccc" />
        <path
           style="color:#000000;clip-rule:nonzero;display:inline;overflow:visible;visibility:visible;opacity:1;isolation:auto;mix-blend-mode:normal;color-interpolation:sRGB;color-interpolation-filters:linearRGB;solid-color:#000000;solid-opacity:1;fill:#000000;fill-opacity:1;fill-rule:evenodd;stroke:none;stroke-width:2.34293818;stroke-linecap:butt;stroke-linejoin:miter;stroke-miterlimit:4;stroke-dasharray:none;stroke-dashoffset:0;stroke-opacity:1;color-rendering:auto;image-rendering:auto;shape-rendering:auto;text-rendering:auto;enable-background:accumulate"
           d="m -179.78081,3087.5253 c -5.77244,0.047 -11.62867,0.3247 -17.61018,0.8242 -21.40384,1.7868 -64.50456,13.2965 -86.17396,23.0102 -58.72288,26.3237 -110.30708,68.6914 -149.08723,122.4523 -14.10203,19.55 -36.20201,60.4595 -45.19226,83.6563 -18.85423,48.6469 -28.65879,108.9974 -24.06806,148.1358 2.1329,18.1857 12.642,48.5655 20.89455,60.4 14.7942,21.2158 41.75382,39.8313 70.54803,48.7145 17.90137,5.5228 46.09727,9.9257 70.90047,11.0704 21.14669,0.9762 66.64628,-0.2198 83.53326,-2.1976 4.79816,-0.5621 19.52516,-4.7097 32.72766,-9.2132 33.47315,-11.4174 45.84492,-18.9552 105.76881,-64.4755 63.647238,-48.3488 85.185593,-61.055 129.057659,-76.1324 55.061616,-18.9227 93.431141,-21.8502 163.089351,-12.4358 33.06143,4.4684 47.41348,5.3374 51.94121,3.1447 l 3.52213,-1.7056 -5.93292,-4.0141 c -14.91413,-10.0872 -114.9129,-47.7608 -140.304626,-52.8598 -19.138659,-3.8431 -39.898809,-15.9588 -53.646987,-31.3007 -13.246318,-14.7826 -21.6273916,-30.2723 -28.2545226,-52.2243 -4.3675536,-14.4674 -4.8279436,-17.8802 -3.5097936,-26.0691 6.0724516,-37.7193 57.2231512,-84.6414 145.5570592,-133.5311 16.48351,-9.1229 34.00043,-18.3765 38.92728,-20.5666 4.92672,-2.1897 8.80919,-4.48 8.63496,-5.0922 -0.30435,-1.0522 -21.07169,-0.2326 -41.72356,1.6482 -5.28375,0.4813 -27.17411,6.2341 -49.837808,13.096 -44.660806,13.5209 -52.757739,14.8122 -86.551029,13.8137 -34.097015,-1.0079 -75.44064,-9.7958 -119.910293,-25.4871 -24.88036,-8.7791 -48.28499,-12.8662 -73.2992,-12.6612 z m -20.03761,101.8939 c 0.67682,-0.019 1.33179,-0.013 1.98048,0.017 a 40.96359,54.010553 74.171101 0 0 -37.15192,53.606 40.96359,54.010553 74.171101 0 0 63.71707,23.8999 40.96359,54.010553 74.171101 0 0 12.07496,-4.8628 c -2.00414,3.3299 -4.4402,6.1471 -7.0851,7.8723 -7.04881,4.5979 -25.90936,10.0615 -36.5696,10.5951 -26.31137,1.3163 -46.83139,-12.9576 -53.94214,-37.5251 -6.31175,-21.8075 4.05101,-37.0549 32.22341,-47.4228 10.75198,-3.9569 18.41843,-6.0002 24.75284,-6.179 z"
           id="path4176"
           inkscape:connector-curvature="0" />
      </g>
    </g>
  </g>
</svg>
